<?xml version="1.0" encoding="UTF-8"?>
<svg version="1.1" xmlns="http://www.w3.org/2000/svg" width="1093" height="464">
<path d="M0 0 C360.69 0 721.38 0 1093 0 C1093 153.12 1093 306.24 1093 464 C732.31 464 371.62 464 0 464 C0 310.88 0 157.76 0 0 Z " fill="#F9FAFC" transform="translate(0,0)"/>
<path d="M0 0 C4.86548808 0.65934184 9.25907636 1.96571246 13.875 3.5625 C14.56335938 3.79646484 15.25171875 4.03042969 15.9609375 4.27148438 C17.64203645 4.84352499 19.32122163 5.42118456 21 6 C21 6.66 21 7.32 21 8 C22.19625 8.12375 23.3925 8.2475 24.625 8.375 C28.27596813 8.82325054 31.54524899 9.70446837 35 11 C35 11.66 35 12.32 35 13 C36.03125 13.103125 37.0625 13.20625 38.125 13.3125 C42 14 42 14 44.83105469 15.50170898 C48.29865495 17.14120535 50.76560622 17.47172457 54.578125 17.66015625 C55.82207031 17.73169922 57.06601563 17.80324219 58.34765625 17.87695312 C59.63542969 17.93818359 60.92320312 17.99941406 62.25 18.0625 C70.66614937 18.49311352 78.7906672 19.01011345 87 21 C87 21.66 87 22.32 87 23 C85.1640625 24.4453125 85.1640625 24.4453125 82.625 26.125 C68.35902851 35.64208025 68.35902851 35.64208025 58 49 C57.60003437 51.93308126 57.46534389 54.07397562 58.9765625 56.69140625 C60.69796021 58.88275609 62.32585025 60.68539678 64.875 61.875 C70.93135979 62.23125646 75.33994169 61.83353281 81 59.5 C81.63719971 59.23807861 82.27439941 58.97615723 82.9309082 58.70629883 C88.49377178 56.35547666 93.81059746 53.58024165 99.07617188 50.62890625 C107.37144644 46.00322076 116.68569611 45.8741878 126 47 C130.16719405 48.37506907 133.40281854 50.52114 137 53 C138.65796978 53.98153417 140.31641174 54.96235176 141.98242188 55.93017578 C152.85484036 62.28595724 163.41328042 69.18426451 174 76 C174.70012207 76.44891602 175.40024414 76.89783203 176.12158203 77.36035156 C177.83570842 78.46219467 179.54322814 79.57429862 181.25 80.6875 C182.14203125 81.26886719 183.0340625 81.85023438 183.953125 82.44921875 C186 84 186 84 188 87 C188.46193077 91.98885232 188.06738634 94.98880248 185 99 C181.47225802 100.76387099 177.8491461 100.55496847 174 100 C170.7892373 98.63079872 168.04324613 96.74284341 165.1875 94.75 C163.53652569 93.6554836 161.8841308 92.5631076 160.23046875 91.47265625 C159.3801709 90.90434082 158.52987305 90.33602539 157.65380859 89.75048828 C153.16661026 86.79067117 148.59243191 83.9802347 144 81.1875 C143.14559326 80.65415039 142.29118652 80.12080078 141.41088867 79.57128906 C140.21749878 78.84570801 140.21749878 78.84570801 139 78.10546875 C138.29875 77.67387451 137.5975 77.24228027 136.875 76.79760742 C134.83718366 75.68629952 134.83718366 75.68629952 132 77 C132.37212431 79.41339182 132.6138945 80.66726124 134.49609375 82.28930664 C135.45708984 82.8441272 135.45708984 82.8441272 136.4375 83.41015625 C137.1598584 83.8373999 137.8822168 84.26464355 138.62646484 84.70483398 C139.40973145 85.15286377 140.19299805 85.60089355 141 86.0625 C142.63914496 87.03195602 144.27713687 88.00336383 145.9140625 88.9765625 C146.75485352 89.47317383 147.59564453 89.96978516 148.46191406 90.48144531 C152.48402908 92.88790505 156.43462805 95.40002144 160.375 97.9375 C161.08140625 98.38552979 161.7878125 98.83355957 162.515625 99.29516602 C169.44171048 103.76124472 169.44171048 103.76124472 172 107 C172.49489112 109.84701407 171.95047209 112.28754163 171 115 C168.41895165 118.03652747 166.76630479 118.84673904 162.875 119.625 C153.09551689 118.04766401 144.19349793 110.67915381 135.98925781 105.40332031 C130.76720075 102.05484234 125.45865686 98.94721941 120 96 C119.01 97.98 119.01 97.98 118 100 C118.73734375 100.26941406 119.4746875 100.53882813 120.234375 100.81640625 C122.90801597 101.96063395 124.91523908 103.22002299 127.25 104.9375 C132.76507343 108.90067682 138.45980451 112.55108995 144.19824219 116.17944336 C144.9049707 116.6306958 145.61169922 117.08194824 146.33984375 117.546875 C146.97269287 117.94745117 147.60554199 118.34802734 148.25756836 118.76074219 C150.0755118 120.05370574 151.56817721 121.28608921 153 123 C153.09225075 127.24353431 152.25279985 128.72312397 149.375 131.875 C145.33535629 134.41847937 143.70345586 134.50742677 139 134 C136.25172957 132.83746497 133.84957653 131.28245042 131.375 129.625 C130.68639893 129.1810791 129.99779785 128.7371582 129.28833008 128.27978516 C124.00166758 124.81621467 118.95695603 121.06080124 114.07373047 117.04931641 C110.96285605 114.46866172 110.96285605 114.46866172 107 114 C107.00776939 115.8445464 107.00776939 115.8445464 108 118 C110.15855134 119.77487397 112.25157072 121.32804863 114.5625 122.875 C115.83728066 123.76296187 117.11202043 124.65098243 118.38671875 125.5390625 C120.48011703 126.97388193 122.58385121 128.38249415 124.70703125 129.7734375 C129.81729114 133.25393883 129.81729114 133.25393883 130.75 137.0625 C129.84691731 140.59957388 128.57183322 142.42816678 126 145 C123.35559361 145.8814688 121.71939248 146.16174818 119 146.1875 C118.319375 146.20167969 117.63875 146.21585938 116.9375 146.23046875 C115 146 115 146 112 144 C111.8828125 141.79296875 111.8828125 141.79296875 112.125 139.1875 C112.22537174 135.32876433 112.18913469 134.28961249 110 130.9375 C106.13620348 128.44213141 103.56054585 128.23189216 99 128 C98.91363281 127.32453125 98.82726562 126.6490625 98.73828125 125.953125 C98.08338979 121.79546543 97.58164326 118.76340678 95 115.375 C90.67008608 113.39045612 86.68665961 113.67238884 82 114 C81.91363281 113.39671875 81.82726562 112.7934375 81.73828125 112.171875 C81.04641138 108.23646837 80.47702598 105.59266864 77.9375 102.4375 C73.96341481 100.49273491 70.35699826 100.29831114 66 101 C65.01 101.66 64.02 102.32 63 103 C62.01 103 61.02 103 60 103 C59.319375 101.8553125 59.319375 101.8553125 58.625 100.6875 C56.69153879 97.48985261 55.43481096 96.45025352 52 95 C48.24513429 94.45397371 45.05349668 94.22537009 41.875 96.5625 C41.25625 97.036875 40.6375 97.51125 40 98 C34.26181908 97.76525624 30.13374044 95.04138086 25.375 92.125 C24.62476563 91.67769531 23.87453125 91.23039062 23.1015625 90.76953125 C17.50641631 87.40649125 17.50641631 87.40649125 14.9609375 85.36328125 C11.98604391 83.29507834 8.64037374 82.25841146 5.25 81.0625 C3.81442749 80.52654861 2.37952227 79.98880623 0.9453125 79.44921875 C-1.28131886 78.61856651 -3.48635797 77.84913258 -5.7578125 77.14453125 C-7.875 76.375 -7.875 76.375 -11 74 C-17.97665569 57.39317428 -13.02341528 31.0929545 -7 15 C-4.83051286 9.92239899 -2.43868625 4.95272516 0 0 Z " fill="#1872EC" transform="translate(98,145)"/>
<path d="M0 0 C-0.82664621 10.12641602 -3.45997253 20.65513761 -7.97265625 29.77734375 C-9.13430716 32.20294551 -9.13430716 32.20294551 -10.3046875 35.65625 C-12.11475609 40.53976423 -14.53450301 45.01794028 -17.0625 49.5625 C-17.54710693 50.43656494 -18.03171387 51.31062988 -18.53100586 52.21118164 C-25.66460645 64.914679 -33.92933724 76.61806259 -43 88 C-43.763125 88.95777344 -44.52625 89.91554688 -45.3125 90.90234375 C-49.68111837 96.31002586 -54.21066888 101.53589841 -58.890625 106.67578125 C-60.74626657 108.72042335 -62.56756376 110.78784149 -64.375 112.875 C-74.84087779 124.87363792 -85.86847463 136.39515587 -96.7578125 148.0078125 C-105.53252183 157.36509067 -105.53252183 157.36509067 -114 167 C-117.54547292 165.52337765 -119.46017513 163.59276966 -121.9375 160.6875 C-125.68200897 156.41071372 -129.57769284 152.36554756 -133.625 148.375 C-137.68194489 144.36555218 -141.56944675 140.30896475 -145.26171875 135.95703125 C-147.41260639 133.53547011 -149.69611515 131.27625205 -152 129 C-155.50461652 125.53221879 -158.82590641 122.00026909 -162.02734375 118.25390625 C-164.09113011 115.89587708 -166.21637065 113.60664495 -168.35620117 111.31787109 C-173.86761217 105.4175895 -179.04508491 99.38004305 -184 93 C-184.85905383 91.9309852 -185.71983979 90.86336082 -186.58203125 89.796875 C-193.24370763 81.51510907 -199.26837468 72.9472841 -205 64 C-205.69996094 62.91976562 -206.39992188 61.83953125 -207.12109375 60.7265625 C-214.87705794 48.48030325 -221.18425758 35.67602296 -226 22 C-226.58974609 20.33324219 -226.58974609 20.33324219 -227.19140625 18.6328125 C-230 10.47125436 -230 10.47125436 -230 7 C-229.28013916 7.29471191 -228.56027832 7.58942383 -227.81860352 7.89306641 C-225.20083016 8.92112915 -222.56813096 9.81709563 -219.90234375 10.7109375 C-213.66126475 12.97033164 -208.20048385 16.15785276 -202.5625 19.625 C-200.64773488 20.78484438 -198.73239341 21.94373796 -196.81640625 23.1015625 C-195.98568604 23.61025879 -195.15496582 24.11895508 -194.29907227 24.64306641 C-192.05946722 26.03792256 -192.05946722 26.03792256 -189.73413086 26.93505859 C-189.16186768 27.28648926 -188.58960449 27.63791992 -188 28 C-187.71056372 30.02605399 -187.42890212 32.05636573 -187.28125 34.09765625 C-186.91781927 36.5558613 -185.92288253 37.49513541 -184 39 C-184 39.66 -184 40.32 -184 41 C-183.16855469 41.06316406 -182.33710938 41.12632812 -181.48046875 41.19140625 C-172.74274118 42.17608492 -172.74274118 42.17608492 -170.5703125 44.5859375 C-169.8125 46.4375 -169.8125 46.4375 -169 50 C-168.67 50.99 -168.34 51.98 -168 53 C-167.02417969 53.06316406 -166.04835937 53.12632812 -165.04296875 53.19140625 C-154.79151321 54.17812183 -154.79151321 54.17812183 -152.47265625 56.5859375 C-151.75 58.4375 -151.75 58.4375 -151 62 C-148.956071 65.06589351 -148.30061649 65.74824563 -145 67 C-143.35791763 67.13884274 -141.71016006 67.21953479 -140.0625 67.25 C-135.49826922 67.59954345 -135.49826922 67.59954345 -133.30859375 69.359375 C-132.12397323 70.84457087 -131.05380374 72.41929439 -130 74 C-125.55831123 76.22084438 -119.35365604 75.27574475 -114.625 74.3125 C-113.75875 74.209375 -112.8925 74.10625 -112 74 C-111.12214844 74.71349609 -111.12214844 74.71349609 -110.2265625 75.44140625 C-105.77478448 78.55765087 -100.16413185 77.86890524 -95 77 C-90.71550106 74.63225058 -87.83630569 71.67503544 -85.65234375 67.30078125 C-84 65 -84 65 -81.29296875 64.3984375 C-80.26816406 64.39070313 -79.24335938 64.38296875 -78.1875 64.375 C-71.99682861 64.09122978 -68.18241927 63.24304203 -63.75 58.6875 C-61.90443357 55.85323727 -60.90627587 53.24748854 -60 50 C-59.33613281 49.91363281 -58.67226563 49.82726562 -57.98828125 49.73828125 C-52.1276436 48.80571263 -48.76371464 47.90423423 -45 43 C-42.40319544 39.38302222 -41.51316399 36.41321031 -41 32 C-40.11248047 31.77957031 -40.11248047 31.77957031 -39.20703125 31.5546875 C-32.21328299 29.56951263 -29.75293911 27.12940867 -25.75 21.125 C-24.79220325 18.76325363 -24.79220325 18.76325363 -24.9140625 15.10546875 C-24.65625 12.94726562 -24.65625 12.94726562 -24 11 C-21.37886574 9.23276747 -19.51176653 8.24186733 -16.625 7.1875 C-10.73166532 4.99651444 -10.73166532 4.99651444 -6 1 C-4 0 -4 0 0 0 Z " fill="#0B52CF" transform="translate(319,222)"/>
<path d="M0 0 C0.66547852 0.18191895 1.33095703 0.36383789 2.01660156 0.55126953 C25.36994105 7.06158017 51.56196248 21.55638041 64 43 C55.56996255 46.41561862 47.1206552 49.74906983 38.57788086 52.8737793 C34.95620806 54.21198092 31.50536281 55.69511204 28.0625 57.4375 C22.91272697 59.79251954 18.39280936 58.92531164 13.06640625 57.47265625 C-2.36341708 53.35202117 -17.97846205 56.08785293 -32.4375 62.25 C-39.59254519 65.23911427 -45.62956132 63.96644873 -52.984375 62.5078125 C-57.35516565 61.77179853 -61.73127308 61.50931667 -66.15234375 61.24609375 C-69 61 -69 61 -70.99609375 60.48046875 C-73.71383533 59.8288465 -76.33173929 59.92122417 -79.125 59.875 C-87.7889607 59.32505036 -94.96595309 56.15366646 -102.90039062 52.83837891 C-106.8078764 51.27811075 -110.8419811 50.15971856 -114.875 48.9765625 C-120.35372857 47.26445982 -125.67163124 45.12785921 -131 43 C-130.13575286 38.51219152 -127.57183436 35.97357614 -124.5 32.75 C-123.96189697 32.17805908 -123.42379395 31.60611816 -122.86938477 31.0168457 C-113.49530251 21.15911917 -113.49530251 21.15911917 -109 18 C-108.01 18 -107.02 18 -106 18 C-106 17.34 -106 16.68 -106 16 C-104.35546875 14.7109375 -104.35546875 14.7109375 -102.1875 13.375 C-101.47980469 12.92898437 -100.77210938 12.48296875 -100.04296875 12.0234375 C-98 11 -98 11 -95 11 C-95 10.34 -95 9.68 -95 9 C-87.43246435 5.08796886 -79.98178147 2.83445599 -71.75 0.91015625 C-68.06374412 0.01547123 -64.5441785 -1.06761836 -60.9921875 -2.38671875 C-43.07176218 -7.9033987 -17.70680187 -5.07995707 0 0 Z " fill="#2991EE" transform="translate(236,95)"/>
<path d="M0 0 C5.94 0 11.88 0 18 0 C21.62917239 7.11876122 25.17497414 14.09902051 28.03515625 21.5625 C29.49504996 25.25065253 31.17018324 28.83505865 32.828125 32.4375 C34.27552354 35.60247815 35.64635128 38.79398988 37 42 C39.07930678 39.92069322 39.76212733 38.52332597 40.8828125 35.84375 C41.24181641 34.99393555 41.60082031 34.14412109 41.97070312 33.26855469 C42.35162109 32.35493164 42.73253906 31.44130859 43.125 30.5 C43.92872543 28.59855139 44.73343245 26.69751742 45.5390625 24.796875 C45.94672852 23.83330078 46.35439453 22.86972656 46.77441406 21.87695312 C48.64554588 17.4846389 50.56490499 13.11444666 52.5 8.75 C52.83789551 7.98236328 53.17579102 7.21472656 53.52392578 6.42382812 C55.87993727 1.12006273 55.87993727 1.12006273 57 0 C59.86267567 -0.07325168 62.700719 -0.09238205 65.5625 -0.0625 C66.36880859 -0.05798828 67.17511719 -0.05347656 68.00585938 -0.04882812 C70.00393756 -0.03700518 72.00197783 -0.01906914 74 0 C74.83375091 6.02429754 75.27264699 11.98837214 75.53515625 18.0625 C75.59962196 19.4868335 75.59962196 19.4868335 75.66539001 20.93994141 C75.75516239 22.94345144 75.84331439 24.94703467 75.92993164 26.95068359 C76.06091159 29.96346357 76.19903392 32.97585529 76.33789062 35.98828125 C76.8315838 47.0055777 77.09846833 57.9715474 77 69 C72.05 69 67.1 69 62 69 C61.67 52.5 61.34 36 61 19 C60.01 22.3 59.02 25.6 58 29 C56.77571723 31.26021434 55.55024664 33.52089635 54.25 35.73828125 C52.57050631 38.77711515 51.35594534 41.92309299 50.11328125 45.16015625 C48.73286444 48.68143002 47.24694559 52.15199856 45.75 55.625 C45.22921875 56.83414063 44.7084375 58.04328125 44.171875 59.2890625 C43.78515625 60.18367188 43.3984375 61.07828125 43 62 C38.71 62 34.42 62 30 62 C29.649375 60.824375 29.29875 59.64875 28.9375 58.4375 C26.79726281 51.99650183 23.7887305 45.94884997 20.87109375 39.83496094 C19.59715712 37.15141057 18.35800005 34.45256407 17.125 31.75 C16.54105469 30.47382813 16.54105469 30.47382813 15.9453125 29.171875 C15 27 15 27 14 24 C13.18983643 34.1255535 12.73021929 44.22421193 12.4375 54.375 C12.39414145 55.80469545 12.35052285 57.23438303 12.30664062 58.6640625 C12.2009711 62.10928787 12.10057978 65.55460757 12 69 C7.38 69 2.76 69 -2 69 C-2.31257719 45.92138446 -1.34786969 23.0341302 0 0 Z " fill="#5DA0EA" transform="translate(660,186)"/>
<path d="M0 0 C6.6 0 13.2 0 20 0 C20.886875 2.7225 21.77375 5.445 22.6875 8.25 C24.80370776 14.66981954 27.08434119 20.94299711 29.82421875 27.12890625 C31.41908882 31.02335642 32.69825735 34.99955022 34 39 C35.35052815 43.10537113 36.70639704 47.20896766 38.0625 51.3125 C38.41376953 52.38306641 38.76503906 53.45363281 39.12695312 54.55664062 C39.46791016 55.58595703 39.80886719 56.61527344 40.16015625 57.67578125 C40.46574463 58.60302002 40.77133301 59.53025879 41.08618164 60.4855957 C41.92404861 62.97695798 41.92404861 62.97695798 43.11499023 65.08276367 C44 67 44 67 44 71 C38.39 71 32.78 71 27 71 C23 59.625 23 59.625 23 54 C14.09 54 5.18 54 -4 54 C-4.66 57.63 -5.32 61.26 -6 65 C-6.66 66.98 -7.32 68.96 -8 71 C-13.61 71 -19.22 71 -25 71 C-24.06770711 67.81089456 -23.12935674 64.62378133 -22.1875 61.4375 C-21.79594727 60.09461914 -21.79594727 60.09461914 -21.39648438 58.72460938 C-21.13544922 57.84482422 -20.87441406 56.96503906 -20.60546875 56.05859375 C-20.36981201 55.25736084 -20.13415527 54.45612793 -19.89135742 53.63061523 C-19 51 -19 51 -17.5480957 47.61914062 C-16.05440573 44.12718981 -14.81003868 40.64221715 -13.625 37.03515625 C-13.41439941 36.39815292 -13.20379883 35.7611496 -12.98681641 35.10484314 C-12.32163129 33.09167505 -11.66051164 31.07720577 -11 29.0625 C-4.22317974 8.44635948 -4.22317974 8.44635948 0 0 Z " fill="#2259B7" transform="translate(408,184)"/>
<path d="M0 0 C4.95 0 9.9 0 15 0 C15.33 9.9 15.66 19.8 16 30 C18.97 27.525 18.97 27.525 22 25 C27.74685698 23.08438101 34.7796368 22.78353051 40.4921875 24.94140625 C44.84113913 27.5589828 49.05289915 30.89087463 50.58276367 35.91308594 C52.1047396 43.52563727 52.7126158 54.61511662 48.3828125 61.3671875 C42.4682503 68.35104908 35.5195015 73.17351929 26.2421875 74.34960938 C23.42132451 74.46236477 20.63441432 74.44900465 17.8125 74.375 C16.86697266 74.37371094 15.92144531 74.37242187 14.94726562 74.37109375 C9.32796317 74.30060773 5.6401144 73.61146126 0 72 C0 48.24 0 24.48 0 0 Z " fill="#255DBC" transform="translate(569,182)"/>
<path d="M0 0 C0.33 9.57 0.66 19.14 1 29 C2.65 27.68 4.3 26.36 6 25 C10.64376288 22.67811856 16.94632739 23.57503208 22 24 C25.86822962 25.39532568 27.71633148 27.57449722 30 31 C31.07459556 35.66378712 31.1321358 40.26203076 31.09765625 45.0234375 C31.0962413 45.76961334 31.09482635 46.51578918 31.09336853 47.28457642 C31.08780874 49.64809318 31.07526389 52.01151227 31.0625 54.375 C31.0574798 55.98567571 31.0529178 57.59635291 31.04882812 59.20703125 C31.03785251 63.13805799 31.02061596 67.06901248 31 71 C26.38 71 21.76 71 17 71 C16.94392578 67.58720703 16.94392578 67.58720703 16.88671875 64.10546875 C16.84050278 61.90118818 16.78926966 59.69707738 16.73754883 57.49291992 C16.70430182 55.96144941 16.67626907 54.42985644 16.65356445 52.89819336 C16.62001282 50.69592113 16.5677009 48.49477088 16.51171875 46.29296875 C16.50532883 45.60849167 16.4989389 44.92401459 16.49235535 44.21879578 C16.4057694 41.41731845 16.29035934 39.43545631 14.71411133 37.0715332 C12.27717029 35.54814135 9.85226936 35.5853257 7.03515625 35.50390625 C4.01173759 36.24090082 2.92136191 37.56951523 1 40 C0.35789448 43.37921394 0.35789448 43.37921394 0.390625 47.171875 C0.37408875 47.8542926 0.35755249 48.53671021 0.34051514 49.23980713 C0.29210161 51.40996354 0.27068135 53.57941972 0.25 55.75 C0.22183438 57.22529552 0.19190611 58.70055851 0.16015625 60.17578125 C0.0830365 63.78417396 0.04246625 67.39036895 0 71 C-4.62 71 -9.24 71 -14 71 C-14 47.9 -14 24.8 -14 1 C-11 0 -11 0 0 0 Z " fill="#5B9FEB" transform="translate(891,184)"/>
<path d="M0 0 C4.95 0 9.9 0 15 0 C15.04898438 2.25199219 15.09796875 4.50398437 15.1484375 6.82421875 C15.20251196 9.01528326 15.25979391 11.20624218 15.31738281 13.3972168 C15.35556704 14.91503978 15.39043808 16.43295001 15.421875 17.95092773 C15.46775628 20.13817431 15.52571029 22.32482582 15.5859375 24.51171875 C15.6173584 25.82615967 15.6487793 27.14060059 15.68115234 28.49487305 C15.97855432 31.76424534 16.59117427 34.06123896 18 37 C22.52881629 37.17760064 25.93331494 37.09143803 30 35 C32.83007002 32.16992998 32.35245926 29.38047148 32.4140625 25.5859375 C32.43342865 24.85629791 32.4527948 24.12665833 32.4727478 23.37490845 C32.53258422 21.04172498 32.57894423 18.70849227 32.625 16.375 C32.66317614 14.79424918 32.70222765 13.21351924 32.7421875 11.6328125 C32.83993951 7.75531628 32.91947228 3.87804561 33 0 C37.95 0 42.9 0 48 0 C48 16.17 48 32.34 48 49 C43.38 49 38.76 49 34 49 C34 46.69 34 44.38 34 42 C33.34 42 32.68 42 32 42 C31.773125 42.598125 31.54625 43.19625 31.3125 43.8125 C29.37145318 47.04757803 26.71831918 48.47546046 23.14453125 49.56640625 C18.09637799 50.58707112 12.87874657 50.81684633 8.125 48.75 C4.60818851 45.8538023 1.60517514 43.33685016 0 39 C-0.27416282 36.02446115 -0.23233872 33.06399182 -0.1953125 30.078125 C-0.1924826 29.21813904 -0.18965271 28.35815308 -0.18673706 27.47210693 C-0.1755615 24.73126179 -0.15046179 21.99074602 -0.125 19.25 C-0.1149668 17.38932764 -0.10584155 15.52865015 -0.09765625 13.66796875 C-0.07563076 9.11185268 -0.04111897 4.55598214 0 0 Z " fill="#235BB9" transform="translate(509,206)"/>
<path d="M0 0 C3.60568541 2.68787458 5.22936559 6.22750509 6.5625 10.4375 C6.80538024 13.2300134 6.9162899 15.77919575 6.85546875 18.55859375 C6.85122391 19.30335464 6.84697906 20.04811554 6.84260559 20.81544495 C6.82595724 23.16901473 6.78833375 25.52169379 6.75 27.875 C6.73493515 29.48110733 6.72124991 31.08722823 6.70898438 32.69335938 C6.67609952 36.60841047 6.62441626 40.52280479 6.5625 44.4375 C1.9425 44.4375 -2.6775 44.4375 -7.4375 44.4375 C-7.7675 43.4475 -8.0975 42.4575 -8.4375 41.4375 C-8.97117187 41.72625 -9.50484375 42.015 -10.0546875 42.3125 C-15.88327278 45.21670858 -20.93174558 46.53285661 -27.4375 45.4375 C-31.84552625 43.27355984 -34.66889226 41.05553133 -36.4375 36.4375 C-37.13416252 32.59692455 -37.29618832 29.26057728 -36.4375 25.4375 C-32.86332987 20.46896226 -28.30071597 17.93888176 -22.4375 16.4375 C-19.76962358 16.30275877 -17.22103559 16.24552139 -14.5625 16.3125 C-13.52996094 16.32603516 -13.52996094 16.32603516 -12.4765625 16.33984375 C-10.79672162 16.36317487 -9.11706254 16.39903674 -7.4375 16.4375 C-8.43146579 12.20069921 -8.43146579 12.20069921 -11.23046875 9.078125 C-17.900209 7.1421296 -25.00393628 8.15001068 -31.4375 10.4375 C-31.7675 7.1375 -32.0975 3.8375 -32.4375 0.4375 C-23.0814927 -3.72072547 -9.13183255 -5.6080548 0 0 Z " fill="#5EA1EB" transform="translate(781.4375,210.5625)"/>
<path d="M0 0 C4.04914002 3.27377278 7.25264301 6.32042903 8.9375 11.375 C8.9375 15.995 8.9375 20.615 8.9375 25.375 C-0.9625 25.705 -10.8625 26.035 -21.0625 26.375 C-20.4025 28.025 -19.7425 29.675 -19.0625 31.375 C-18.7325 32.365 -18.4025 33.355 -18.0625 34.375 C-10.97908276 37.24486226 -1.0594741 35.97852525 5.9375 33.375 C7.0952506 36.84825181 7.00616652 39.73567448 6.9375 43.375 C-1.43941076 47.65257145 -11.62609844 47.57484942 -20.765625 45.87109375 C-27.60777744 43.58602376 -31.49568487 38.36215398 -35.0625 32.375 C-37.19539595 25.89156132 -37.351618 17.26630036 -34.5625 11 C-27.80517158 -0.31013835 -12.31499292 -6.51012841 0 0 Z " fill="#62A4ED" transform="translate(966.0625,209.625)"/>
<path d="M0 0 C13.53 0 27.06 0 41 0 C41 11.10749477 41 11.10749477 36.7824707 15.65600586 C36.19425537 16.24389893 35.60604004 16.83179199 35 17.4375 C33.80238441 18.7153808 32.60838137 19.99665659 31.41796875 21.28125 C30.83321777 21.90386719 30.2484668 22.52648437 29.64599609 23.16796875 C26.58326868 26.57685432 24.06234084 30.33441508 21.48828125 34.12109375 C20.99714844 34.74113281 20.50601562 35.36117187 20 36 C19.34 36 18.68 36 18 36 C18 36.66 18 37.32 18 38 C25.59 38 33.18 38 41 38 C41 41.63 41 45.26 41 49 C26.81 49 12.62 49 -2 49 C-2 38.70592629 -2 38.70592629 2.875 33.75 C3.88586123 32.64862375 4.89359328 31.54436863 5.8984375 30.4375 C6.41374023 29.87804687 6.92904297 29.31859375 7.45996094 28.7421875 C10.44896146 25.36084512 13.08325943 21.69599237 15.73779297 18.04980469 C17.77397956 15.32184221 18.68531955 14.10489348 22 13 C22 12.34 22 11.68 22 11 C14.74 11 7.48 11 0 11 C0 7.37 0 3.74 0 0 Z " fill="#2158B8" transform="translate(458,206)"/>
<path d="M0 0 C1.5675 0.020625 3.135 0.04125 4.75 0.0625 C4.75 4.3525 4.75 8.6425 4.75 13.0625 C8.71 13.0625 12.67 13.0625 16.75 13.0625 C16.75 16.0325 16.75 19.0025 16.75 22.0625 C12.79 22.0625 8.83 22.0625 4.75 22.0625 C4.83691553 25.64701638 4.94379708 29.22901557 5.0625 32.8125 C5.08505859 33.82828125 5.10761719 34.8440625 5.13085938 35.890625 C5.1840332 37.36015625 5.1840332 37.36015625 5.23828125 38.859375 C5.26446533 39.76010742 5.29064941 40.66083984 5.31762695 41.58886719 C5.82666703 44.50111678 6.74847498 45.91398415 8.75 48.0625 C10.7816566 48.75100829 10.7816566 48.75100829 12.9375 48.8125 C14.195625 48.895 15.45375 48.9775 16.75 49.0625 C17.245 54.0125 17.245 54.0125 17.75 59.0625 C11.83205549 61.03514817 4.38360007 61.11007827 -1.62109375 59.37890625 C-5.88476559 57.16913224 -7.47317603 54.37353572 -9.25 50.0625 C-9.59057617 46.90283203 -9.59057617 46.90283203 -9.54296875 43.5703125 C-9.53330078 42.37148437 -9.52363281 41.17265625 -9.51367188 39.9375 C-9.48853516 38.7 -9.46339844 37.4625 -9.4375 36.1875 C-9.42396484 34.92679688 -9.41042969 33.66609375 -9.39648438 32.3671875 C-9.36123435 29.26518546 -9.31195504 26.16406466 -9.25 23.0625 C-11.89 23.0625 -14.53 23.0625 -17.25 23.0625 C-17.25 19.7625 -17.25 16.4625 -17.25 13.0625 C-14.61 13.0625 -11.97 13.0625 -9.25 13.0625 C-9.25 9.1025 -9.25 5.1425 -9.25 1.0625 C-5.84112017 0.21028004 -3.44565369 -0.04533755 0 0 Z " fill="#5B9FEB" transform="translate(809.25,195.9375)"/>
<path d="M0 0 C1.11375 -0.01160156 1.11375 -0.01160156 2.25 -0.0234375 C6.759075 -0.00750437 10.37967825 0.5518713 14.625 2.25 C13.965 5.22 13.305 8.19 12.625 11.25 C11.67238281 11.22679687 10.71976563 11.20359375 9.73828125 11.1796875 C8.48402344 11.16164062 7.22976563 11.14359375 5.9375 11.125 C4.69613281 11.10179687 3.45476563 11.07859375 2.17578125 11.0546875 C-1.27652088 11.24458311 -3.42207488 11.47292434 -6.375 13.25 C-8.34899339 16.72685241 -8.67099533 19.8568814 -8.6875 23.8125 C-8.70425781 24.74191406 -8.72101562 25.67132813 -8.73828125 26.62890625 C-8.3177333 29.66318232 -7.300246 30.92852923 -5.375 33.25 C-5.375 33.91 -5.375 34.57 -5.375 35.25 C-1.61199626 36.50433458 1.89710909 36.35695422 5.8125 36.3125 C6.56208984 36.30798828 7.31167969 36.30347656 8.08398438 36.29882812 C9.93102383 36.28706354 11.77802213 36.26912865 13.625 36.25 C14.285 39.22 14.945 42.19 15.625 45.25 C7.80092813 49.0055545 -0.59454876 49.65945691 -9.06640625 47.59375 C-15.83920435 44.9350543 -19.44546624 40.14430064 -23.375 34.25 C-25.27282338 26.6587065 -25.77829083 18.03928338 -21.78125 11.1015625 C-15.79104629 3.21446095 -9.7973917 -0.10100404 0 0 Z " fill="#5CA0E9" transform="translate(854.375,207.75)"/>
<path d="M0 0 C4.29 0 8.58 0 13 0 C13.33 2.31 13.66 4.62 14 7 C14.78375 6.030625 15.5675 5.06125 16.375 4.0625 C17.91288705 2.16037654 18.79259913 1.10370043 21 0 C24.00474497 -0.13559318 26.99068847 -0.04299016 30 0 C30 3.96 30 7.92 30 12 C27.81901042 12.09765625 25.63802083 12.1953125 23.45703125 12.29296875 C19.87725316 13.32307977 18.36609129 15.16030383 16 18 C15.22876561 21.17047234 15.22876561 21.17047234 15.29296875 24.61328125 C15.26396484 25.86044922 15.23496094 27.10761719 15.20507812 28.39257812 C15.19927734 29.68615234 15.19347656 30.97972656 15.1875 32.3125 C15.16236328 33.62541016 15.13722656 34.93832031 15.11132812 36.29101562 C15.05249165 39.52702167 15.02337559 42.76354354 15 46 C10.05 46 5.1 46 0 46 C0 30.82 0 15.64 0 0 Z " fill="#62A6ED" transform="translate(983,209)"/>
<path d="M0 0 C4.95 0 9.9 0 15 0 C15 16.17 15 32.34 15 49 C10.05 49 5.1 49 0 49 C0 32.83 0 16.66 0 0 Z " fill="#235AB7" transform="translate(630,206)"/>
<path d="M0 0 C2.80024429 2.10018321 4.42069399 3.66313997 5.8125 6.875 C6.41768802 13.73379755 5.96171175 19.051051 1.6875 24.75 C-2.39439257 27.77362412 -5.63458964 29.17911987 -10.7109375 29.08203125 C-11.5157959 29.07018799 -12.3206543 29.05834473 -13.14990234 29.04614258 C-13.76043457 29.03091553 -14.3709668 29.01568848 -15 29 C-15.1746354 25.10473501 -15.28096492 21.2104781 -15.375 17.3125 C-15.42527344 16.20970703 -15.47554687 15.10691406 -15.52734375 13.97070312 C-15.67109579 6.0403825 -15.67109579 6.0403825 -13.7980957 3.13671875 C-9.56212276 -0.63277886 -5.34674159 -1.24068037 0 0 Z " fill="#EFF3FA" transform="translate(599,217)"/>
<path d="M0 0 C2.58289842 3.87434763 3.68412659 7.82981472 5.0625 12.25 C5.33126953 13.08402344 5.60003906 13.91804687 5.87695312 14.77734375 C6.13541016 15.59847656 6.39386719 16.41960937 6.66015625 17.265625 C6.89355713 18.00586914 7.12695801 18.74611328 7.36743164 19.50878906 C8.15749337 22.62024793 8.54600939 25.82206571 9 29 C3.39 29 -2.22 29 -8 29 C-7.32432444 23.59459556 -6.72734214 19.51818779 -5.125 14.5 C-4.77179688 13.39269531 -4.41859375 12.28539062 -4.0546875 11.14453125 C-2.79476859 7.38810634 -1.4464227 3.68837789 0 0 Z " fill="#EBF0F8" transform="translate(417,197)"/>
<path d="M0 0 C0 0.66 0 1.32 0 2 C1.32 2.66 2.64 3.32 4 4 C4.47792208 11.16883117 4.47792208 11.16883117 2.5625 14.5 C-1.25048553 16.73199153 -4.6964862 16.89853585 -9 16 C-11.625 13.9375 -11.625 13.9375 -13 11 C-13 7.11417724 -12.53567796 4.83565762 -10.4375 1.5625 C-6.85236684 -0.73566228 -4.20922245 -0.28061483 0 0 Z " fill="#285DBA" transform="translate(642,180)"/>
<path d="M0 0 C1.21236328 0.01353516 1.21236328 0.01353516 2.44921875 0.02734375 C3.37154297 0.04474609 3.37154297 0.04474609 4.3125 0.0625 C4.67931223 7.52101528 4.67931223 7.52101528 3 10 C-1.1444796 12.60948716 -4.96719359 12.36220199 -9.6875 12.0625 C-11.6875 9.0625 -11.6875 9.0625 -11.5 6.5625 C-10.62490139 3.86988888 -9.91024287 2.77230221 -7.6875 1.0625 C-4.80538698 0.10179566 -2.98899956 -0.04331883 0 0 Z " fill="#ECF3FC" transform="translate(769.6875,233.9375)"/>
<path d="M0 0 C2.9375 2.1875 2.9375 2.1875 5 5 C5 6.65 5 8.3 5 10 C-0.61 10 -6.22 10 -12 10 C-11 3 -11 3 -9.375 1.0625 C-5.97380129 -0.4590889 -3.68717269 -0.51749792 0 0 Z " fill="#F3F7FC" transform="translate(957,217)"/>
<path d="M0 0 C0.99 0.474375 1.98 0.94875 3 1.4375 C6.99189495 3.16813748 10.68114582 3.62115314 15 4 C14.67 4.66 14.34 5.32 14 6 C11.69 5.67 9.38 5.34 7 5 C6.67 5.66 6.34 6.32 6 7 C4.02 7 2.04 7 0 7 C0 6.34 0 5.68 0 5 C-0.62261719 5.32742188 -1.24523437 5.65484375 -1.88671875 5.9921875 C-6.23023307 7.39824358 -10.2804469 7.21286978 -14.8125 7.125 C-15.69615234 7.11597656 -16.57980469 7.10695313 -17.49023438 7.09765625 C-19.66027359 7.07419637 -21.83017247 7.03832865 -24 7 C-23.67 6.34 -23.34 5.68 -23 5 C-20.0859375 4.40234375 -20.0859375 4.40234375 -16.375 3.9375 C-14.56128906 3.70353516 -14.56128906 3.70353516 -12.7109375 3.46484375 C-10.19719371 3.14996427 -7.68142005 2.85095481 -5.1640625 2.56640625 C-1.91478775 2.29574914 -1.91478775 2.29574914 0 0 Z " fill="#D6DAE9" transform="translate(207,386)"/>
<path d="M0 0 C4.45827926 -0.0578304 8.9164628 -0.09353855 13.375 -0.125 C15.28152344 -0.15013672 15.28152344 -0.15013672 17.2265625 -0.17578125 C18.43828125 -0.18222656 19.65 -0.18867188 20.8984375 -0.1953125 C22.01911621 -0.20578613 23.13979492 -0.21625977 24.29443359 -0.22705078 C27 0 27 0 29 2 C25.61742248 2.7598161 22.48804963 3.12812969 19.0234375 3.1328125 C17.64671875 3.13474609 17.64671875 3.13474609 16.2421875 3.13671875 C15.29601562 3.13285156 14.34984375 3.12898438 13.375 3.125 C11.94414062 3.13080078 11.94414062 3.13080078 10.484375 3.13671875 C9.11152344 3.13478516 9.11152344 3.13478516 7.7109375 3.1328125 C6.87868652 3.13168457 6.04643555 3.13055664 5.18896484 3.12939453 C3 3 3 3 0 2 C0 1.34 0 0.68 0 0 Z " fill="#D4D8E7" transform="translate(187,396)"/>
<path d="M0 0 C1.13145583 3.39436748 0.88607147 3.95192391 -0.25 7.1875 C-2.01695399 12.62552279 -3.00776238 18.09538986 -3.90917969 23.72924805 C-4.21032481 25.49794247 -4.59810559 27.25144367 -5 29 C-5.66 29.33 -6.32 29.66 -7 30 C-7.84719003 19.62192209 -4.20559029 9.36316233 0 0 Z " fill="#5FB7FA" transform="translate(93,155)"/>
<path d="M0 0 C4.86548808 0.65934184 9.25907636 1.96571246 13.875 3.5625 C14.56335938 3.79646484 15.25171875 4.03042969 15.9609375 4.27148438 C17.64203645 4.84352499 19.32122163 5.42118456 21 6 C17.94371936 6.97812873 16.14722553 7.00835683 13.109375 6.00390625 C12.40039062 5.77509766 11.69140625 5.54628906 10.9609375 5.31054688 C10.23132813 5.06369141 9.50171875 4.81683594 8.75 4.5625 C8.00492188 4.31951172 7.25984375 4.07652344 6.4921875 3.82617188 C4.65841765 3.22667019 2.82877996 2.61455513 1 2 C0.87753906 2.61359375 0.75507812 3.2271875 0.62890625 3.859375 C-0.20861499 6.71006841 -1.82799528 8.03818928 -4 10 C-2.8905928 6.51329166 -1.73662334 3.22515763 0 0 Z " fill="#6AC3FA" transform="translate(98,145)"/>
<path d="M0 0 C0.78310547 0.66322266 0.78310547 0.66322266 1.58203125 1.33984375 C5.44687913 3.99341459 9.80725711 5.24819748 14.19921875 6.81640625 C17 8 17 8 18 10 C13.39583374 9.39124245 9.43516676 8.15277044 5.125 6.4375 C3.97257812 5.98246094 2.82015625 5.52742187 1.6328125 5.05859375 C0.76398438 4.70925781 -0.10484375 4.35992187 -1 4 C-0.67 2.68 -0.34 1.36 0 0 Z " fill="#63CBFB" transform="translate(106,134)"/>
<path d="M0 0 C6.28260706 -0.23268915 11.88019467 0.59545452 18 2 C18 2.66 18 3.32 18 4 C15.5 5.625 15.5 5.625 13 7 C13 5.68 13 4.36 13 3 C8.71 2.34 4.42 1.68 0 1 C0 0.67 0 0.34 0 0 Z " fill="#6FA9F5" transform="translate(167,164)"/>
<path d="M0 0 C0 0.33 0 0.66 0 1 C-2.31 1 -4.62 1 -7 1 C-8.73662334 4.22515763 -9.8905928 7.51329166 -11 11 C-11.66 11 -12.32 11 -13 11 C-12.71860476 7.34186183 -12.43656214 4.68103694 -10.4375 1.5625 C-6.85236684 -0.73566228 -4.20922245 -0.28061483 0 0 Z " fill="#517ECB" transform="translate(642,180)"/>
<path d="M0 0 C0.66 0.33 1.32 0.66 2 1 C0.5484451 2.67257355 -0.91144409 4.33791758 -2.375 6 C-3.18710938 6.928125 -3.99921875 7.85625 -4.8359375 8.8125 C-5.55007812 9.534375 -6.26421875 10.25625 -7 11 C-7.66 11 -8.32 11 -9 11 C-7.59155282 7.78475695 -5.89655214 5.67816132 -3.375 3.25 C-2.74335938 2.63640625 -2.11171875 2.0228125 -1.4609375 1.390625 C-0.73777344 0.70226562 -0.73777344 0.70226562 0 0 Z " fill="#5593F5" transform="translate(176,262)"/>
<path d="M0 0 C-1.71349285 1.71349285 -4.10564155 1.61186231 -6.4375 2 C-10.34682538 2.60555519 -10.34682538 2.60555519 -14 4 C-14 2.68 -14 1.36 -14 0 C-12.04235617 -0.19456705 -10.08384679 -0.38044247 -8.125 -0.5625 C-6.48917969 -0.71912109 -6.48917969 -0.71912109 -4.8203125 -0.87890625 C-2 -1 -2 -1 0 0 Z " fill="#3A75D9" transform="translate(249,287)"/>
<path d="M0 0 C0.66 0 1.32 0 2 0 C0.44499019 3.81684226 -2.03595495 6.19195732 -5 9 C-5.66 8.67 -6.32 8.34 -7 8 C-5.88200014 6.66079162 -4.75538103 5.32877444 -3.625 4 C-2.68527344 2.88625 -2.68527344 2.88625 -1.7265625 1.75 C-1.15679687 1.1725 -0.58703125 0.595 0 0 Z " fill="#5E98F5" transform="translate(193,275)"/>
<path d="M0 0 C0.33 0 0.66 0 1 0 C0.8864371 1.64666203 0.75882619 3.29236082 0.625 4.9375 C0.52058594 6.31228516 0.52058594 6.31228516 0.4140625 7.71484375 C0.27742188 8.46894531 0.14078125 9.22304687 0 10 C-0.99 10.495 -0.99 10.495 -2 11 C-2 8.36 -2 5.72 -2 3 C-1.34 3 -0.68 3 0 3 C0 2.01 0 1.02 0 0 Z " fill="#2F96F9" transform="translate(88,174)"/>
<path d="M0 0 C3.465 1.485 3.465 1.485 7 3 C7 3.33 7 3.66 7 4 C4.03 4 1.06 4 -2 4 C-1.34 2.68 -0.68 1.36 0 0 Z " fill="#E4E7F1" transform="translate(207,386)"/>
<path d="M0 0 C0 0.66 0 1.32 0 2 C-0.53625 1.79375 -1.0725 1.5875 -1.625 1.375 C-4.83267308 0.8685253 -7.01317066 1.84599775 -10 3 C-10.33 2.34 -10.66 1.68 -11 1 C-6.87831311 -0.62950412 -4.29299643 -1.26264601 0 0 Z " fill="#A1CAF2" transform="translate(308,146)"/>
<path d="M0 0 C0.33 1.32 0.66 2.64 1 4 C-0.65 5.32 -2.3 6.64 -4 8 C-4.66 7.67 -5.32 7.34 -6 7 C-4.02 4.69 -2.04 2.38 0 0 Z " fill="#3673DE" transform="translate(233,290)"/>
<path d="M0 0 C-1.49097658 3.7952131 -3.75700849 5.61042731 -7 8 C-4.18918919 0 -4.18918919 0 0 0 Z " fill="#649BF4" transform="translate(156,253)"/>
<path d="M0 0 C0.33 0 0.66 0 1 0 C1 2.31 1 4.62 1 7 C0.01 7.33 -0.98 7.66 -2 8 C-1.125 1.125 -1.125 1.125 0 0 Z " fill="#E2EDFA" transform="translate(720,207)"/>
<path d="M0 0 C0.66 0.66 1.32 1.32 2 2 C1.01 4.64 0.02 7.28 -1 10 C-2.10191901 5.59232396 -1.58706842 4.1077065 0 0 Z " fill="#47A6FA" transform="translate(89,167)"/>
</svg>