<svg xmlns="http://www.w3.org/2000/svg" width="800" height="480" viewBox="0 0 800 480" role="img" aria-label="Fotoaehnliche Szene fuer Kaufmann und Kauffrau im Einzelhandel mit Regal, Einkaufstasche und Preisschild">
  <defs>
    <linearGradient id="bg" x1="0" y1="0" x2="1" y2="1">
      <stop offset="0%" stop-color="#fdf6ff"/>
      <stop offset="100%" stop-color="#edf9f3"/>
    </linearGradient>
    <filter id="shadow" x="-20%" y="-20%" width="140%" height="160%">
      <feDropShadow dx="0" dy="12" stdDeviation="14" flood-color="#5d4d72" flood-opacity="0.16"/>
    </filter>
  </defs>
  <rect width="800" height="480" rx="28" fill="url(#bg)"/>
  <rect x="50" y="54" width="700" height="372" rx="34" fill="#ffffff" opacity="0.96" filter="url(#shadow)"/>
  <rect x="92" y="92" width="616" height="288" rx="26" fill="#fffafd" stroke="#ece0f5" stroke-width="4"/>

  <g filter="url(#shadow)">
    <rect x="132" y="124" width="236" height="208" rx="22" fill="#eef8f1"/>
    <path d="M170 164 h160 M170 220 h160 M170 276 h160" fill="none" stroke="#8fd2a5" stroke-width="8" stroke-linecap="round"/>
    <rect x="186" y="176" width="42" height="30" rx="8" fill="#ffd27f"/>
    <rect x="242" y="176" width="42" height="30" rx="8" fill="#fda4af"/>
    <rect x="186" y="232" width="42" height="30" rx="8" fill="#93c5fd"/>
    <rect x="242" y="232" width="42" height="30" rx="8" fill="#facc15"/>
  </g>

  <g filter="url(#shadow)">
    <path d="M446 200 h40 l12 64 h86" fill="none" stroke="#4d71d8" stroke-width="8" stroke-linecap="round" stroke-linejoin="round"/>
    <circle cx="498" cy="276" r="10" fill="#365aa5"/>
    <circle cx="556" cy="276" r="10" fill="#365aa5"/>
    <path d="M454 146 v22 c0 12 8 20 20 20 h72 c12 0 20 -8 20 -20 v-22" fill="#22c55e"/>
    <path d="M470 146 c0 -16 10 -28 22 -28 M548 146 c0 -16 -10 -28 -22 -28" fill="none" stroke="#22c55e" stroke-width="8" stroke-linecap="round"/>
  </g>

  <g filter="url(#shadow)">
    <path d="M596 134 h58 l16 18 l-16 18 h-58 z" fill="#ec4899"/>
    <circle cx="636" cy="152" r="6" fill="#ffffff"/>
  </g>
</svg>