<svg xmlns="http://www.w3.org/2000/svg" width="800" height="480" viewBox="0 0 800 480" role="img" aria-label="Fotoaehnliche Szene fuer Elektroniker und Elektronikerin mit Schaltschrank und Messgeraet">
  <defs>
    <linearGradient id="bg" x1="0" y1="0" x2="1" y2="1">
      <stop offset="0%" stop-color="#fff9ec"/>
      <stop offset="100%" stop-color="#eaf2ff"/>
    </linearGradient>
    <linearGradient id="panel" x1="0" y1="0" x2="1" y2="1">
      <stop offset="0%" stop-color="#27437f"/>
      <stop offset="100%" stop-color="#162953"/>
    </linearGradient>
    <filter id="shadow" x="-20%" y="-20%" width="140%" height="160%">
      <feDropShadow dx="0" dy="12" stdDeviation="14" flood-color="#20345f" flood-opacity="0.18"/>
    </filter>
  </defs>
  <rect width="800" height="480" rx="28" fill="url(#bg)"/>
  <rect x="50" y="54" width="700" height="372" rx="34" fill="#ffffff" opacity="0.96" filter="url(#shadow)"/>
  <rect x="92" y="92" width="616" height="288" rx="26" fill="#fffcf8" stroke="#efe3cf" stroke-width="4"/>
  <rect x="92" y="276" width="616" height="92" fill="#cab393" opacity="0.42"/>

  <g filter="url(#shadow)">
    <rect x="136" y="120" width="270" height="196" rx="24" fill="url(#panel)"/>
    <rect x="154" y="138" width="234" height="160" rx="18" fill="#f6faff"/>
    <rect x="184" y="166" width="66" height="44" rx="10" fill="#e6efff"/>
    <rect x="264" y="166" width="66" height="44" rx="10" fill="#e6efff"/>
    <circle cx="204" cy="188" r="7" fill="#f59e0b"/>
    <circle cx="222" cy="188" r="7" fill="#22c55e"/>
    <circle cx="284" cy="188" r="7" fill="#3b82f6"/>
    <circle cx="302" cy="188" r="7" fill="#ef4444"/>
    <path d="M192 246 C218 224 246 224 272 246 S320 266 340 236" fill="none" stroke="#3976df" stroke-width="8" stroke-linecap="round"/>
    <path d="M184 272 h144" fill="none" stroke="#b8c9ed" stroke-width="8" stroke-linecap="round"/>
  </g>

  <g filter="url(#shadow)">
    <path d="M430 216 h76 c32 0 50 34 32 62 l-18 28" fill="none" stroke="#f59e0b" stroke-width="10" stroke-linecap="round"/>
    <circle cx="430" cy="216" r="10" fill="#f59e0b"/>
    <path d="M430 274 h70" fill="none" stroke="#3976df" stroke-width="10" stroke-linecap="round"/>
    <circle cx="430" cy="274" r="10" fill="#3976df"/>
    <rect x="546" y="150" width="98" height="138" rx="20" fill="#ffffff"/>
    <rect x="574" y="176" width="42" height="18" rx="9" fill="#3976df"/>
    <rect x="574" y="210" width="30" height="18" rx="9" fill="#f59e0b"/>
    <rect x="574" y="244" width="50" height="10" rx="5" fill="#bbcaf0"/>
  </g>
</svg>