<svg xmlns="http://www.w3.org/2000/svg" width="800" height="480" viewBox="0 0 800 480" role="img" aria-label="Fotoaehnliche Szene fuer Fachinformatiker und Fachinformatikerin mit Monitor, Laptop und Serverrack">
  <defs>
    <linearGradient id="bg" x1="0" y1="0" x2="1" y2="1">
      <stop offset="0%" stop-color="#eef8fb"/>
      <stop offset="100%" stop-color="#e1eaff"/>
    </linearGradient>
    <linearGradient id="desk" x1="0" y1="0" x2="1" y2="1">
      <stop offset="0%" stop-color="#4d4038"/>
      <stop offset="100%" stop-color="#27201d"/>
    </linearGradient>
    <filter id="shadow" x="-20%" y="-20%" width="140%" height="160%">
      <feDropShadow dx="0" dy="12" stdDeviation="14" flood-color="#1e355f" flood-opacity="0.18"/>
    </filter>
  </defs>
  <rect width="800" height="480" rx="28" fill="url(#bg)"/>
  <rect x="50" y="54" width="700" height="372" rx="34" fill="#ffffff" opacity="0.96" filter="url(#shadow)"/>
  <rect x="92" y="92" width="616" height="164" rx="22" fill="#f5fbff"/>
  <rect x="92" y="256" width="616" height="112" fill="url(#desk)"/>

  <g filter="url(#shadow)">
    <rect x="182" y="138" width="176" height="102" rx="18" fill="#213b87"/>
    <rect x="196" y="152" width="148" height="74" rx="12" fill="#f6fbff"/>
    <path d="M220 176 l16 12 l-16 12" fill="none" stroke="#0ea5e9" stroke-width="8" stroke-linecap="round" stroke-linejoin="round"/>
    <path d="M270 200 h28" fill="none" stroke="#2563eb" stroke-width="8" stroke-linecap="round"/>
    <rect x="244" y="240" width="50" height="10" rx="5" fill="#a7bcec"/>
    <rect x="228" y="250" width="82" height="10" rx="5" fill="#4d5f81"/>
  </g>

  <g filter="url(#shadow)">
    <path d="M112 294 h132 l22 38 h-176 z" fill="#dce8ff"/>
    <rect x="132" y="210" width="92" height="58" rx="12" fill="#ffffff" stroke="#d7e4fb" stroke-width="4"/>
    <path d="M150 232 h56" fill="none" stroke="#9db8ea" stroke-width="6" stroke-linecap="round"/>
    <path d="M150 252 h42" fill="none" stroke="#0ea5e9" stroke-width="6" stroke-linecap="round"/>
  </g>

  <g filter="url(#shadow)">
    <rect x="478" y="124" width="132" height="186" rx="22" fill="#16345f"/>
    <rect x="502" y="152" width="84" height="30" rx="10" fill="#eef6ff"/>
    <rect x="502" y="196" width="84" height="30" rx="10" fill="#eef6ff"/>
    <rect x="502" y="240" width="84" height="30" rx="10" fill="#eef6ff"/>
    <circle cx="478" cy="178" r="8" fill="#0ea5e9"/>
    <circle cx="478" cy="246" r="8" fill="#2563eb"/>
    <path d="M362 182 h104" fill="none" stroke="#2563eb" stroke-width="8" stroke-linecap="round"/>
    <path d="M362 204 h54" fill="none" stroke="#9eb8ea" stroke-width="8" stroke-linecap="round"/>
    <path d="M362 246 h104" fill="none" stroke="#0ea5e9" stroke-width="8" stroke-linecap="round"/>
  </g>
</svg>