<svg xmlns="http://www.w3.org/2000/svg" width="800" height="480" viewBox="0 0 800 480" role="img" aria-label="Illustration einer Friseurin mit Spiegel, Schere und Kundin im Salon">
  <defs>
    <linearGradient id="fr-bg" x1="0" y1="0" x2="1" y2="1">
      <stop offset="0%" stop-color="#fff1f8"/>
      <stop offset="100%" stop-color="#eef7ff"/>
    </linearGradient>
    <linearGradient id="fr-accent" x1="0" y1="0" x2="1" y2="1">
      <stop offset="0%" stop-color="#ec4899"/>
      <stop offset="100%" stop-color="#8b5cf6"/>
    </linearGradient>
  </defs>
  <rect width="800" height="480" rx="28" fill="url(#fr-bg)"/>
  <circle cx="118" cy="92" r="84" fill="#f5d0fe" opacity="0.76"/>
  <circle cx="692" cy="90" r="76" fill="#dbeafe" opacity="0.72"/>
  <rect x="56" y="62" width="688" height="356" rx="32" fill="#ffffff" opacity="0.92"/>
  <g transform="translate(82 104)">
    <rect x="34" y="22" width="182" height="216" rx="28" fill="#eef4ff" stroke="#dae5fb" stroke-width="4"/>
    <rect x="62" y="50" width="126" height="146" rx="18" fill="#ffffff" stroke="#d8d4fe" stroke-width="4"/>
    <path d="M126 196 v38" fill="none" stroke="#c7d2fe" stroke-width="10" stroke-linecap="round"/>
    <circle cx="356" cy="94" r="40" fill="#ffd8bf"/>
    <path d="M320 92 C322 58 340 32 370 32 C394 32 414 54 416 84 C408 110 390 126 356 126 C334 126 320 114 320 92" fill="#8b5cf6"/>
    <path d="M304 176 C318 132 346 108 384 108 C424 108 454 128 470 178 L318 178 Z" fill="#a855f7" opacity="0.2"/>
    <path d="M344 134 C358 124 374 124 388 134" fill="none" stroke="#8b5cf6" stroke-width="10" stroke-linecap="round"/>
    <rect x="332" y="176" width="56" height="88" rx="18" fill="#f59e0b" opacity="0.2"/>
    <circle cx="542" cy="82" r="40" fill="#ffd8bf"/>
    <path d="M508 82 C510 48 530 24 560 24 C586 24 606 48 606 80 V100 C590 90 572 86 552 86 C536 86 520 86 508 82" fill="#223c88"/>
    <path d="M494 160 C508 120 538 98 578 98 C618 98 648 118 662 170 L512 170 Z" fill="url(#fr-accent)"/>
    <path d="M530 146 L486 200" fill="none" stroke="#ffd8bf" stroke-width="16" stroke-linecap="round"/>
    <path d="M608 146 L660 126" fill="none" stroke="#ffd8bf" stroke-width="16" stroke-linecap="round"/>
    <path d="M560 170 V254" fill="none" stroke="#2d344e" stroke-width="18" stroke-linecap="round"/>
    <path d="M536 254 L510 318" fill="none" stroke="#2d344e" stroke-width="18" stroke-linecap="round"/>
    <path d="M584 254 L614 318" fill="none" stroke="#2d344e" stroke-width="18" stroke-linecap="round"/>
    <path d="M654 122 l18 10 l-18 10" fill="none" stroke="#ec4899" stroke-width="10" stroke-linecap="round" stroke-linejoin="round"/>
    <path d="M688 118 l18 24" fill="none" stroke="#94a3b8" stroke-width="8" stroke-linecap="round"/>
    <path d="M706 118 l-18 24" fill="none" stroke="#94a3b8" stroke-width="8" stroke-linecap="round"/>
  </g>
</svg>