<svg xmlns="http://www.w3.org/2000/svg" width="800" height="480" viewBox="0 0 800 480" role="img" aria-label="Fotoaehnliche Szene fuer Kfz-Mechatroniker und Kfz-Mechatronikerin mit Fahrzeug, Werkzeugwagen und Diagnosegeraet">
  <defs>
    <linearGradient id="bg" x1="0" y1="0" x2="1" y2="1">
      <stop offset="0%" stop-color="#f6f8ff"/>
      <stop offset="100%" stop-color="#e7f0ff"/>
    </linearGradient>
    <linearGradient id="car" x1="0" y1="0" x2="1" y2="1">
      <stop offset="0%" stop-color="#ff872f"/>
      <stop offset="100%" stop-color="#e45c11"/>
    </linearGradient>
    <filter id="shadow" x="-20%" y="-20%" width="140%" height="160%">
      <feDropShadow dx="0" dy="12" stdDeviation="14" flood-color="#223552" flood-opacity="0.18"/>
    </filter>
  </defs>
  <rect width="800" height="480" rx="28" fill="url(#bg)"/>
  <rect x="50" y="54" width="700" height="372" rx="34" fill="#ffffff" opacity="0.96" filter="url(#shadow)"/>
  <rect x="92" y="92" width="616" height="288" rx="26" fill="#fcfdff" stroke="#dbe4f4" stroke-width="4"/>
  <rect x="92" y="282" width="616" height="86" fill="#dde4ee"/>

  <g filter="url(#shadow)">
    <path d="M176 300 h360 l30 -74 c8 -18 24 -30 42 -34 l88 -18 c28 -6 54 12 64 38 l18 48 v40 h-602 z" fill="url(#car)"/>
    <path d="M440 176 l48 -54 l84 14 l-22 54" fill="#fcb687"/>
    <rect x="242" y="224" width="132" height="48" rx="16" fill="#fff2e8" opacity="0.94"/>
    <rect x="388" y="224" width="118" height="48" rx="16" fill="#ffe6d5" opacity="0.94"/>
    <circle cx="286" cy="324" r="24" fill="#2b364e"/>
    <circle cx="286" cy="324" r="8" fill="#f7f8fc"/>
    <circle cx="568" cy="324" r="24" fill="#2b364e"/>
    <circle cx="568" cy="324" r="8" fill="#f7f8fc"/>
  </g>

  <g filter="url(#shadow)">
    <path d="M520 126 l44 10" fill="none" stroke="#2b364e" stroke-width="8" stroke-linecap="round"/>
    <path d="M544 108 l-12 40" fill="none" stroke="#2b364e" stroke-width="8" stroke-linecap="round"/>
  </g>

  <g filter="url(#shadow)">
    <rect x="620" y="212" width="60" height="96" rx="16" fill="#ffffff"/>
    <rect x="636" y="232" width="28" height="40" rx="8" fill="#3158d4"/>
    <path d="M640 286 h20" fill="none" stroke="#a0b7eb" stroke-width="6" stroke-linecap="round"/>
  </g>

  <path d="M154 344 h520" fill="none" stroke="#c9d5e8" stroke-width="8" stroke-linecap="round"/>
</svg>