<svg xmlns="http://www.w3.org/2000/svg" width="800" height="480" viewBox="0 0 800 480" role="img" aria-label="Fotoaehnliche Szene fuer Fachkraft fuer Lagerlogistik mit Regalanlage, Palette und Scanner">
  <defs>
    <linearGradient id="bg" x1="0" y1="0" x2="1" y2="1">
      <stop offset="0%" stop-color="#edf6ff"/>
      <stop offset="100%" stop-color="#e8ecff"/>
    </linearGradient>
    <filter id="shadow" x="-20%" y="-20%" width="140%" height="160%">
      <feDropShadow dx="0" dy="12" stdDeviation="14" flood-color="#243a75" flood-opacity="0.18"/>
    </filter>
  </defs>
  <rect width="800" height="480" rx="28" fill="url(#bg)"/>
  <rect x="50" y="54" width="700" height="372" rx="34" fill="#ffffff" opacity="0.96" filter="url(#shadow)"/>
  <rect x="92" y="92" width="616" height="288" rx="26" fill="#f9fbff" stroke="#d8e4f7" stroke-width="4"/>

  <g filter="url(#shadow)">
    <rect x="132" y="122" width="256" height="206" rx="22" fill="#eef4ff"/>
    <path d="M176 144 v168 M260 144 v168 M344 144 v168" fill="none" stroke="#c3d2f0" stroke-width="8" stroke-linecap="round"/>
    <path d="M156 186 h208 M156 242 h208 M156 298 h208" fill="none" stroke="#c3d2f0" stroke-width="8" stroke-linecap="round"/>
    <rect x="178" y="160" width="58" height="40" rx="8" fill="#ffbf6f"/>
    <rect x="252" y="160" width="58" height="40" rx="8" fill="#ffbf6f"/>
    <rect x="214" y="216" width="58" height="40" rx="8" fill="#ff9f56"/>
    <rect x="178" y="272" width="58" height="40" rx="8" fill="#ffbf6f"/>
    <rect x="252" y="272" width="58" height="40" rx="8" fill="#ff9f56"/>
  </g>

  <g filter="url(#shadow)">
    <rect x="418" y="286" width="194" height="28" rx="14" fill="#e9effa"/>
    <path d="M446 300 h108" fill="none" stroke="#4c72da" stroke-width="10" stroke-linecap="round"/>
    <path d="M438 300 l-24 18" fill="none" stroke="#4c72da" stroke-width="10" stroke-linecap="round"/>
    <circle cx="472" cy="322" r="16" fill="#273c76"/>
    <circle cx="538" cy="322" r="16" fill="#273c76"/>
  </g>

  <g filter="url(#shadow)">
    <rect x="522" y="150" width="60" height="112" rx="16" fill="#ffffff"/>
    <rect x="540" y="172" width="24" height="46" rx="8" fill="#1d4ed8"/>
    <path d="M544 232 h16" fill="none" stroke="#9eb8eb" stroke-width="6" stroke-linecap="round"/>
  </g>
</svg>