<svg xmlns="http://www.w3.org/2000/svg" width="800" height="480" viewBox="0 0 800 480" role="img" aria-label="Illustration einer medizinischen Fachangestellten in Behandlungszimmer mit Akte und Stethoskop">
  <defs>
    <linearGradient id="mf-bg" x1="0" y1="0" x2="1" y2="1">
      <stop offset="0%" stop-color="#effaf7"/>
      <stop offset="100%" stop-color="#eef5ff"/>
    </linearGradient>
  </defs>
  <rect width="800" height="480" rx="28" fill="url(#mf-bg)"/>
  <circle cx="118" cy="92" r="84" fill="#d1fae5" opacity="0.78"/>
  <circle cx="694" cy="90" r="76" fill="#dbeafe" opacity="0.72"/>
  <rect x="56" y="62" width="688" height="356" rx="32" fill="#ffffff" opacity="0.92"/>
  <g transform="translate(84 106)">
    <rect x="26" y="34" width="206" height="208" rx="24" fill="#eff6ff" stroke="#dbeafe" stroke-width="4"/>
    <rect x="60" y="68" width="138" height="120" rx="18" fill="#ffffff" stroke="#d1fae5" stroke-width="4"/>
    <path d="M130 84 h28" fill="none" stroke="#10b981" stroke-width="10" stroke-linecap="round"/>
    <path d="M144 70 v28" fill="none" stroke="#10b981" stroke-width="10" stroke-linecap="round"/>
    <path d="M92 126 h74" fill="none" stroke="#93c5fd" stroke-width="10" stroke-linecap="round"/>
    <path d="M92 154 h56" fill="none" stroke="#93c5fd" stroke-width="10" stroke-linecap="round"/>
    <circle cx="512" cy="82" r="40" fill="#ffd8bf"/>
    <path d="M478 82 C482 46 498 22 528 22 C554 22 574 46 576 78 V100 C560 90 542 86 522 86 C506 86 490 86 478 82" fill="#24408d"/>
    <path d="M466 158 C478 120 508 98 546 98 C584 98 614 118 628 166 L484 166 Z" fill="#14b8a6"/>
    <path d="M500 144 L460 196" fill="none" stroke="#ffd8bf" stroke-width="16" stroke-linecap="round"/>
    <path d="M578 144 L636 122" fill="none" stroke="#ffd8bf" stroke-width="16" stroke-linecap="round"/>
    <path d="M536 166 V252" fill="none" stroke="#2d344e" stroke-width="18" stroke-linecap="round"/>
    <path d="M512 252 L486 316" fill="none" stroke="#2d344e" stroke-width="18" stroke-linecap="round"/>
    <path d="M560 252 L590 316" fill="none" stroke="#2d344e" stroke-width="18" stroke-linecap="round"/>
    <path d="M628 118 c0 -18 14 -30 30 -30 c16 0 30 12 30 30 v30 c0 16 -14 30 -30 30 c-16 0 -30 -14 -30 -30 z" fill="none" stroke="#3158d4" stroke-width="8"/>
    <path d="M688 178 h-16 c-16 0 -28 -12 -28 -28 v-8" fill="none" stroke="#3158d4" stroke-width="8" stroke-linecap="round"/>
    <circle cx="658" cy="118" r="6" fill="#3158d4"/>
  </g>
</svg>