<svg xmlns="http://www.w3.org/2000/svg" width="800" height="480" viewBox="0 0 800 480" role="img" aria-label="Illustration einer Physiotherapeutin mit Patient auf Matte bei Uebung und Bewegungsarbeit">
  <defs>
    <linearGradient id="pt-bg" x1="0" y1="0" x2="1" y2="1">
      <stop offset="0%" stop-color="#eefcf7"/>
      <stop offset="100%" stop-color="#f3f4ff"/>
    </linearGradient>
  </defs>
  <rect width="800" height="480" rx="28" fill="url(#pt-bg)"/>
  <circle cx="118" cy="92" r="84" fill="#dcfce7" opacity="0.78"/>
  <circle cx="694" cy="90" r="76" fill="#e0e7ff" opacity="0.72"/>
  <rect x="56" y="62" width="688" height="356" rx="32" fill="#ffffff" opacity="0.92"/>
  <g transform="translate(74 112)">
    <rect x="60" y="214" width="262" height="48" rx="24" fill="#bfdbfe"/>
    <circle cx="152" cy="108" r="36" fill="#ffd8bf"/>
    <path d="M122 108 C126 78 142 56 170 56 C194 56 212 76 214 104 C208 124 190 140 160 140 C140 140 126 128 122 108" fill="#2563eb"/>
    <path d="M112 182 C126 148 150 130 182 130 C212 130 236 146 248 180 L132 180 Z" fill="#60a5fa"/>
    <path d="M170 182 V234" fill="none" stroke="#334155" stroke-width="18" stroke-linecap="round"/>
    <path d="M170 232 L126 250" fill="none" stroke="#334155" stroke-width="18" stroke-linecap="round"/>
    <path d="M170 216 L224 216" fill="none" stroke="#ffd8bf" stroke-width="16" stroke-linecap="round"/>
    <path d="M224 216 L278 168" fill="none" stroke="#ffd8bf" stroke-width="16" stroke-linecap="round"/>
    <circle cx="382" cy="116" r="34" fill="#ffd8bf"/>
    <path d="M354 116 C356 88 372 66 396 66 C420 66 436 86 438 112 C432 130 416 146 392 146 C372 146 358 136 354 116" fill="#1f3b7a"/>
    <path d="M346 182 C356 150 380 132 412 132 C444 132 470 148 480 182 L362 182 Z" fill="#10b981"/>
    <path d="M388 180 V248" fill="none" stroke="#334155" stroke-width="18" stroke-linecap="round"/>
    <path d="M388 248 L360 312" fill="none" stroke="#334155" stroke-width="18" stroke-linecap="round"/>
    <path d="M412 248 L446 312" fill="none" stroke="#334155" stroke-width="18" stroke-linecap="round"/>
    <path d="M364 194 L324 224" fill="none" stroke="#ffd8bf" stroke-width="16" stroke-linecap="round"/>
    <path d="M444 194 L486 154" fill="none" stroke="#ffd8bf" stroke-width="16" stroke-linecap="round"/>
    <rect x="514" y="70" width="112" height="92" rx="20" fill="#ffffff" stroke="#d1fae5" stroke-width="4"/>
    <path d="M540 94 c16 -10 34 -10 50 0" fill="none" stroke="#10b981" stroke-width="8" stroke-linecap="round"/>
    <path d="M538 118 c20 -12 42 -12 64 0" fill="none" stroke="#3b82f6" stroke-width="8" stroke-linecap="round"/>
    <path d="M538 142 c24 -14 50 -14 76 0" fill="none" stroke="#10b981" stroke-width="8" stroke-linecap="round"/>
  </g>
</svg>